#!OML:ASF Y:\EmotionMaleHayes\Project 1\Capture day 1\Session 1\Male1.ASF
:FULLY-SPECIFIED
:DEGREES
361
root 9.72521 17.0929 3.24051 205.024 81.4406 207.143
lowerback 5.92817 3.05155 2.79969
upperback 4.28683 4.32376 1.86353
thorax 1.16175 2.26051 0.148283
lowerneck -21.9911 2.13199 6.35614
upperneck 22.3293 1.30998 -1.35729
head 10.9142 1.03374 -1.32878
rclavicle 4.01545e-014 -8.54774e-015
rhumerus -42.7943 29.6591 -99.0752
rradius 112.061
rwrist -2.63786
rhand -13.3572 -21.1093
rfingers 7.12502
rthumb 12.7489 -50.7001
lclavicle 4.01545e-014 -8.54774e-015
lhumerus -44.8892 -43.9943 105.721
lradius 95.2834
lwrist -25.4499
lhand -14.4655 -38.0302
lfingers 7.12502
lthumb 11.6802 -8.37579
rfemur 9.73214 -10.2906 21.3143
rtibia 3.61434
rfoot -15.519 -5.39169
rtoes 12.904
lfemur -3.96789 -3.37725 -4.9512
ltibia 21.2135
lfoot -13.3764 3.23134
ltoes -17.8012
362
root 9.70721 17.0838 3.25496 207.06 80.9283 209.141
lowerback 6.00509 3.05203 3.40996
upperback 4.21618 4.36 1.98826
thorax 1.08405 2.28942 -0.0700941
lowerneck -21.9554 2.03808 6.26159
upperneck 22.1843 1.17559 -1.22353
head 10.8466 0.978279 -1.28526
rclavicle -4.37326e-015 -9.93923e-015
rhumerus -41.5452 30.0206 -98.8475
rradius 112.463
rwrist -2.98568
rhand -13.5496 -21.1918
rfingers 7.12502
rthumb 12.5633 -50.794
lclavicle -4.37326e-015 -9.93923e-015
lhumerus -43.9422 -45.7382 106.594
lradius 95.2606
lwrist -24.6719
lhand -14.4547 -37.5162
lfingers 7.12502
lthumb 11.6906 -7.86242
rfemur 9.62976 -10.9848 21.8083
rtibia 3.65014
rfoot -15.3974 -4.96638
rtoes 13.2647
lfemur -4.61148 -3.35526 -4.29117
ltibia 21.9635
lfoot -13.5692 2.9379
ltoes -17.1978
363
root 9.69004 17.077 3.26543 208.053 80.4804 210.112
lowerback 6.06161 3.03318 3.89228
upperback 4.2044 4.36451 2.073
thorax 1.07153 2.30188 -0.253331
lowerneck -21.8399 1.98469 6.22304
upperneck 21.8517 1.09101 -1.12559
head 10.6982 0.940473 -1.25603
rclavicle 2.83268e-015 7.35503e-015
rhumerus -40.1281 30.5086 -98.5801
rradius 112.783
rwrist -3.36868
rhand -13.8077 -21.4145
rfingers 7.12502
rthumb 12.3146 -51.0318
lclavicle 2.83268e-015 7.35503e-015
lhumerus -43.074 -47.3976 107.424
lradius 95.3523
lwrist -23.9896
lhand -14.151 -37.6985
lfingers 7.12502
lthumb 11.9835 -8.06154
rfemur 9.52465 -12.0677 21.9204
rtibia 3.75411
rfoot -15.1783 -4.24338
rtoes 12.7604
lfemur -5.22088 -3.44215 -3.89327
ltibia 22.6983
lfoot -13.7917 2.74517
ltoes -16.9976
364
root 9.67062 17.0709 3.27036 205.273 80.3296 207.034
lowerback 5.90859 3.03729 3.66671
upperback 4.19308 4.34766 1.95991
thorax 1.13544 2.28905 -0.234768
lowerneck -22.0666 2.01425 6.14809
upperneck 21.7264 1.10476 -1.01383
head 10.6939 0.949038 -1.20016
rclavicle 8.84592e-015 -2.24627e-014
rhumerus -38.743 30.8488 -98.1499
rradius 113.171
rwrist -3.41125
rhand -13.8483 -21.3927
rfingers 7.12502
rthumb 12.2754 -51.0124
lclavicle 8.84592e-015 -2.24627e-014
lhumerus -42.1093 -49.144 108.173
lradius 95.5389
lwrist -22.9105
lhand -12.9305 -38.2201
lfingers 7.12502
lthumb 13.1601 -8.65543
rfemur 9.14905 -13.2267 21.1444
rtibia 3.95851
rfoot -14.9771 -3.4894
rtoes 12.4553
lfemur -6.06503 -3.67475 -4.47603
ltibia 23.4338
lfoot -14.0283 2.64542
ltoes -16.8142
365
root 9.6519 17.0595 3.27448 203.466 80.2901 204.961
lowerback 5.82684 3.04452 3.50733
upperback 4.1483 4.34313 1.8804
thorax 1.12821 2.28197 -0.224806
lowerneck -22.378 1.96699 5.80414
upperneck 21.7886 1.06068 -0.747304
head 10.7688 0.933237 -1.05301
rclavicle -8.24956e-015 -1.09332e-014
rhumerus -37.4928 31.2865 -97.6706
rradius 113.721
rwrist -3.60698
rhand -13.3489 -21.4532
rfingers 7.12502
rthumb 12.7568 -51.0435
lclavicle -8.24956e-015 -1.09332e-014
lhumerus -41.1602 -50.9277 108.928
lradius 95.7423
lwrist -21.3715
lhand -11.1654 -37.6312
lfingers 7.12502
lthumb 14.8611 -8.18422
rfemur 8.76245 -13.9144 20.6541
rtibia 4.20298
rfoot -14.9236 -2.96159
rtoes 13.1891
lfemur -6.7291 -3.79191 -4.8917
ltibia 24.0038
lfoot -14.2283 2.56771
ltoes -15.9223
366
root 9.64132 17.0427 3.29791 207.227 79.9435 208.856
lowerback 5.95036 3.04261 4.13434
upperback 4.18947 4.38455 2.16559
thorax 1.13012 2.31717 -0.286128
lowerneck -22.2927 2.11703 6.16544
upperneck 21.5773 1.23698 -1.09052
head 10.6865 0.994172 -1.20927
rclavicle -1.21756e-014 6.36111e-015
rhumerus -36.1303 32.0293 -97.1884
rradius 114.199
rwrist -4.08191
rhand -13.1227 -21.6478
rfingers 7.12502
rthumb 12.9749 -51.2244
lclavicle -1.21756e-014 6.36111e-015
lhumerus -40.2838 -52.7922 109.791
lradius 95.7149
lwrist -20.6285
lhand -9.81086 -36.9715
lfingers 7.12502
lthumb 16.1658 -7.6256
rfemur 8.73481 -13.7388 21.7271
rtibia 4.19919
rfoot -14.982 -3.1615
rtoes 14.0969
lfemur -7.01252 -3.68358 -3.81083
ltibia 24.5138
lfoot -14.3872 2.3797
ltoes -14.8546
367
root 9.6301 17.03 3.32395 211.656 79.3875 213.499
lowerback 6.12749 3.05249 5.00386
upperback 4.26311 4.46322 2.51962
thorax 1.15236 2.37869 -0.412856
lowerneck -22.2978 2.0948 6.16131
upperneck 21.3241 1.22955 -1.20509
head 10.5943 0.968256 -1.25081
rclavicle 4.47762e-014 1.15295e-014
rhumerus -34.692 32.7903 -96.6861
rradius 114.563
rwrist -4.47267
rhand -13.3391 -21.8074
rfingers 7.12502
rthumb 12.7663 -51.3971
lclavicle 4.47762e-014 1.15295e-014
lhumerus -39.554 -54.9461 110.774
lradius 95.5685
lwrist -20.3774
lhand -10.4964 -37.3903
lfingers 7.12502
lthumb 15.5056 -7.99202
rfemur 8.73253 -13.5344 23.0994
rtibia 4.22116
rfoot -15.08 -3.48507
rtoes 14.2193
lfemur -7.29972 -3.56508 -2.42191
ltibia 25.1057
lfoot -14.5509 2.14073
ltoes -14.3048
368
root 9.61385 17.0206 3.33592 213.902 78.9228 215.81
lowerback 6.31956 3.05597 5.76916
upperback 4.25431 4.52868 2.65282
thorax 1.09178 2.42797 -0.711573
lowerneck -22.4031 2.03226 5.96238
upperneck 21.1969 1.16492 -1.07507
head 10.5619 0.934413 -1.18071
rclavicle -3.23025e-014 -3.81667e-014
rhumerus -33.4242 33.3165 -96.2696
rradius 114.98
rwrist -4.71456
rhand -13.218 -21.8222
rfingers 7.12502
rthumb 12.8831 -51.4045
lclavicle -3.23025e-014 -3.81667e-014
lhumerus -39.0869 -57.2401 111.732
lradius 95.5914
lwrist -19.5685
lhand -10.4964 -37.3903
lfingers 7.12502
lthumb 15.5056 -7.99202
rfemur 8.59751 -13.8356 23.8296
rtibia 4.35792
rfoot -15.0477 -3.40425
rtoes 13.9233
lfemur -7.71198 -3.56277 -1.64428
ltibia 25.7018
lfoot -14.7111 2.0012
ltoes -14.0784
369
root 9.597 17.0111 3.35192 214.848 78.564 216.816
lowerback 6.51841 3.03399 6.21317
upperback 4.25046 4.54514 2.72764
thorax 1.0092 2.44503 -0.891997
lowerneck -22.553 2.03102 5.95636
upperneck 21.1524 1.15907 -1.10756
head 10.5729 0.924584 -1.19184
rclavicle -2.92213e-014 -1.78906e-014
rhumerus -32.1596 33.9831 -95.7911
rradius 115.436
rwrist -5.24452
rhand -13.0702 -21.8297
rfingers 7.12502
rthumb 13.0255 -51.403
lclavicle -2.92213e-014 -1.78906e-014
lhumerus -38.5552 -59.5039 112.6
lradius 95.5521
lwrist -18.519
lhand -10.4964 -37.3903
lfingers 7.12502
lthumb 15.5056 -7.99202
rfemur 8.5464 -13.9927 24.3193
rtibia 4.36974
rfoot -14.973 -3.50127
rtoes 13.7027
lfemur -8.06776 -3.55262 -1.16657
ltibia 26.1753
lfoot -14.7943 2.00084
ltoes -15.1207
370
root 9.57811 17.004 3.36946 214.507 78.3457 216.528
lowerback 6.6651 2.96587 6.26278
upperback 4.30845 4.47309 2.7892
thorax 0.982689 2.41245 -0.860017
lowerneck -22.5618 2.13295 6.13219
upperneck 20.9247 1.28154 -1.29486
head 10.4986 0.964538 -1.26872
rclavicle -6.02318e-014 -7.55382e-015
rhumerus -30.7425 35.0529 -95.1356
rradius 115.925
rwrist -6.46156
rhand -13.4896 -22.0052
rfingers 7.12502
rthumb 12.6212 -51.6039
lclavicle -6.02318e-014 -7.55382e-015
lhumerus -37.9486 -61.6925 113.407
lradius 95.5142
lwrist -17.681
lhand -10.4964 -37.3903
lfingers 7.12502
lthumb 15.5056 -7.99202
rfemur 8.58355 -14.0732 24.4771
rtibia 4.26751
rfoot -15.0093 -3.64832
rtoes 13.8608
lfemur -8.36522 -3.58368 -1.04383
ltibia 26.5354
lfoot -14.796 2.06149
ltoes -16.5888
371
root 9.56062 16.9989 3.37865 213.588 78.2742 215.64
lowerback 6.78701 2.88636 6.23041
upperback 4.3884 4.37577 2.76878
thorax 0.991255 2.36693 -0.863209
lowerneck -22.5859 2.28596 6.25594
upperneck 20.7349 1.46314 -1.36625
head 10.4431 1.04302 -1.286
rclavicle -2.6985e-014 7.15625e-015
rhumerus -29.0297 36.1287 -94.2465
rradius 116.282
rwrist -7.91995
rhand -13.724 -22.1388
rfingers 7.12502
rthumb 12.3952 -51.7513
lclavicle -2.6985e-014 7.15625e-015
lhumerus -37.5036 -63.7302 114.162
lradius 95.6924
lwrist -16.6874
lhand -10.4964 -37.3903
lfingers 7.12502
lthumb 15.5056 -7.99202
rfemur 8.6143 -14.4979 24.2468
rtibia 4.27313
rfoot -15.0153 -3.42744
rtoes 13.7852
lfemur -8.56839 -3.77308 -1.22161
ltibia 26.7656
lfoot -14.7718 2.13807
ltoes -16.5543
